0
SECTION
2
HEADER
9
$INSUNITS
70
4
9
$ACADVER
1
AC1014
9
$HANDSEED
5
FFFF
0
ENDSEC
0
SECTION
2
TABLES
0
TABLE
2
VPORT
5
8
100
AcDbSymbolTable
0
ENDTAB
0
TABLE
2
LTYPE
5
5
100
AcDbSymbolTable
0
LTYPE
5
14
100
AcDbSymbolTableRecord
100
AcDbLinetypeTableRecord
2
BYBLOCK
70
0
0
LTYPE
5
15
100
AcDbSymbolTableRecord
100
AcDbLinetypeTableRecord
2
BYLAYER
70
0
0
ENDTAB
0
TABLE
2
LAYER
5
2
100
AcDbSymbolTable
70
2
0
LAYER
5
50
100
AcDbSymbolTableRecord
100
AcDbLayerTableRecord
2
0
70
0
6
CONTINUOUS
0
ENDTAB
0
TABLE
2
STYLE
5
3
100
AcDbSymbolTable
70
1
0
STYLE
5
11
100
AcDbSymbolTableRecord
100
AcDbTextStyleTableRecord
2
STANDARD
70
0
0
ENDTAB
0
TABLE
2
VIEW
5
6
100
AcDbSymbolTable
70
0
0
ENDTAB
0
TABLE
2
UCS
5
7
100
AcDbSymbolTable
70
0
0
ENDTAB
0
TABLE
2
APPID
5
9
100
AcDbSymbolTable
70
2
0
APPID
5
12
100
AcDbSymbolTableRecord
100
AcDbRegAppTableRecord
2
ACAD
70
0
0
ENDTAB
0
TABLE
2
DIMSTYLE
5
A
100
AcDbSymbolTable
70
1
0
ENDTAB
0
TABLE
2
BLOCK_RECORD
5
1
100
AcDbSymbolTable
70
1
0
BLOCK_RECORD
5
1F
100
AcDbSymbolTableRecord
100
AcDbBlockTableRecord
2
*MODEL_SPACE
0
BLOCK_RECORD
5
1B
100
AcDbSymbolTableRecord
100
AcDbBlockTableRecord
2
*PAPER_SPACE
0
ENDTAB
0
ENDSEC
0
SECTION
2
BLOCKS
0
BLOCK
5
20
100
AcDbEntity
100
AcDbBlockBegin
2
*MODEL_SPACE
0
ENDBLK
5
21
100
AcDbEntity
100
AcDbBlockEnd
0
BLOCK
5
1C
100
AcDbEntity
100
AcDbBlockBegin
2
*PAPER_SPACE
0
ENDBLK
5
1D
100
AcDbEntity
100
AcDbBlockEnd
0
ENDSEC
0
SECTION
2
ENTITIES
0
LWPOLYLINE
5
100
100
AcDbEntity
8
0
100
AcDbPolyline
90
4
70
1
43
0.0
10
-71.999999999924881
20
27.000000000265672
10
-71.999999999879165
20
41.000000000265686
10
-85.999999999879208
20
41.000000000311402
10
-85.99999999992491
20
27.000000000311392
0
CIRCLE
5
101
100
AcDbEntity
8
0
100
AcDbCircle
10
172.99999999981321
20
59.000000000602604
30
-4.0206795851351451e-11
40
2.6000000000000134
210
-9.4225817624606235e-12
220
1.2246469529825531e-16
230
-1
0
LWPOLYLINE
5
102
100
AcDbEntity
8
0
100
AcDbPolyline
90
4
70
1
43
0.0
10
127.00000000008816
20
30.999999999615891
10
141.00000000008811
20
30.999999999570178
10
141.00000000004243
20
16.999999999570171
10
127.00000000004246
20
16.999999999615884
0
LWPOLYLINE
5
103
100
AcDbEntity
8
0
100
AcDbPolyline
90
4
70
1
43
0.0
10
167.00000000009794
20
33.999999999485283
10
153.00000000009797
20
33.999999999531006
10
153.00000000005224
20
19.999999999531003
10
167.00000000005218
20
19.99999999948529
0
LWPOLYLINE
5
104
100
AcDbEntity
8
0
100
AcDbPolyline
90
8
70
1
43
0.0
10
-183.00000000027424
20
-60.000000082655802
10
-182.99999999990513
20
60.00000102827638
42
-0.41421356237315027
10
-173.99999999987574
20
69.000001028248704
10
174.0000027269125
20
69.000001028180137
42
-0.41421356237309592
10
183.0000027269125
20
60.000001028180122
10
183.00000272654165
20
-60.000000083820844
42
-0.4142135623731884
10
174.00000272651295
20
-69.000000083794973
10
-174.000000000303
20
-69.000000082683471
42
-0.41421356237306062
0
LWPOLYLINE
5
105
100
AcDbEntity
8
0
100
AcDbPolyline
90
4
70
1
43
0.0
10
141.00000000010454
20
35.999999999570178
10
141.00000000015024
20
49.999999999570186
10
127.00000000015017
20
49.999999999615888
10
127.00000000010446
20
35.999999999615888
0
CIRCLE
5
106
100
AcDbEntity
8
0
100
AcDbCircle
10
-173.00000000018682
20
58.999999999458481
30
1.2525639034757022e-12
40
2.5999999999999974
210
-9.4225817624606235e-12
220
1.2246469529825531e-16
230
-1
0
LWPOLYLINE
5
107
100
AcDbEntity
8
0
100
AcDbPolyline
90
4
70
1
43
0.0
10
98.000000000159986
20
52.999999999710603
10
98.000000000114298
20
38.999999999710589
10
112.00000000011428
20
38.99999999966488
10
112.00000000016004
20
52.999999999664887
0
CIRCLE
5
108
100
AcDbEntity
8
0
100
AcDbCircle
10
-172.99999999978718
20
-59.000000000541483
30
1.25310274813437e-12
40
2.5999999999999868
210
-9.4225817624606235e-12
220
1.2246469529825531e-16
230
-1
0
LWPOLYLINE
5
109
100
AcDbEntity
8
0
100
AcDbPolyline
90
4
70
1
43
0.0
10
7.0000000000000018
20
-26.999999999992276
10
-7.0000000000000018
20
-26.99999999994656
10
-6.9999999999542872
20
-12.999999999946555
10
7.0000000000457163
20
-12.999999999992269
0
LWPOLYLINE
5
110
100
AcDbEntity
8
0
100
AcDbPolyline
90
4
70
1
43
0.0
10
-79.000000000143658
20
-39.999999999711491
10
-65.000000000143658
20
-39.999999999757208
10
-65.000000000097927
20
-25.9999999997572
10
-79.000000000097955
20
-25.999999999711484
0
LWPOLYLINE
5
111
100
AcDbEntity
8
0
100
AcDbPolyline
90
4
70
1
43
0.0
10
-97.999999999885716
20
39.000000000350582
10
-111.99999999988572
20
39.000000000396298
10
-111.99999999984
20
53.000000000396305
10
-97.999999999839986
20
53.000000000350589
0
LWPOLYLINE
5
112
100
AcDbEntity
8
0
100
AcDbPolyline
90
4
70
1
43
0.0
10
-60.000000000140417
20
-38.999999999773493
10
-46.000000000140417
20
-38.999999999819217
10
-46.00000000018612
20
-52.999999999819238
10
-60.000000000186127
20
-52.999999999773522
0
LWPOLYLINE
5
113
100
AcDbEntity
8
0
100
AcDbPolyline
90
4
70
1
43
0.0
10
112.00000000009796
20
33.99999999966488
10
98.000000000097955
20
33.999999999710589
10
98.000000000052268
20
19.999999999710592
10
112.00000000005225
20
19.999999999664873
0
LWPOLYLINE
5
114
100
AcDbEntity
8
0
100
AcDbPolyline
90
4
70
1
43
0.0
10
86.000000000075147
20
26.999999999749768
10
86.000000000120792
20
40.999999999749775
10
72.000000000120835
20
40.999999999795492
10
72.000000000075119
20
26.999999999795492
0
LWPOLYLINE
5
115
100
AcDbEntity
8
0
100
AcDbPolyline
90
4
70
1
43
0.0
10
-126.99999999989552
20
36.000000000445269
10
-126.99999999984981
20
50.000000000445269
10
-140.99999999984982
20
50.000000000490978
10
-140.99999999989552
20
36.000000000490985
0
LWPOLYLINE
5
116
100
AcDbEntity
8
0
100
AcDbPolyline
90
4
70
1
43
0.0
10
86.000000000058805
20
21.999999999749768
10
72.00000000005879
20
21.999999999795481
10
72.000000000013088
20
7.9999999997954703
10
86.000000000013088
20
7.9999999997497557
0
LWPOLYLINE
5
117
100
AcDbEntity
8
0
100
AcDbPolyline
90
4
70
1
43
0.0
10
45.999999999813888
20
-53.00000000011962
10
59.999999999813909
20
-53.00000000016535
10
59.999999999859597
20
-39.000000000165322
10
45.999999999859604
20
-39.000000000119613
0
CIRCLE
5
118
100
AcDbEntity
8
0
100
AcDbCircle
10
2.1289346816592565e-10
20
-58.999999999969461
30
-1.947657712927867e-11
40
2.6000000000000005
210
-9.4225817624606235e-12
220
1.2246469529825531e-16
230
-1
0
LWPOLYLINE
5
119
100
AcDbEntity
8
0
100
AcDbPolyline
90
4
70
1
43
0.0
10
167.00000000003598
20
14.999999999485285
10
153.00000000003593
20
14.999999999530996
10
152.99999999999022
20
0.99999999953099439
10
166.99999999999019
20
0.99999999948527762
0
LWPOLYLINE
5
120
100
AcDbEntity
8
0
100
AcDbPolyline
90
4
70
1
43
0.0
10
-152.99999999994776
20
20.000000000530168
10
-152.99999999990203
20
34.000000000530164
10
-166.99999999990209
20
34.000000000575888
10
-166.99999999994776
20
20.000000000575877
0
LWPOLYLINE
5
121
100
AcDbEntity
8
0
100
AcDbPolyline
90
4
70
1
43
0.0
10
64.999999999986969
20
-1.816630179618528e-10
10
64.999999999941238
20
-14.00000000018167
10
78.999999999941252
20
-14.000000000227381
10
78.999999999986983
20
-2.2737756122381825e-10
0
LWPOLYLINE
5
122
100
AcDbEntity
8
0
100
AcDbPolyline
90
4
70
1
43
0.0
10
78.999999999902073
20
-26.000000000227384
10
64.999999999902073
20
-26.000000000181672
10
64.999999999856342
20
-40.000000000181679
10
78.999999999856371
20
-40.000000000227402
0
LWPOLYLINE
5
123
100
AcDbEntity
8
0
100
AcDbPolyline
90
4
70
1
43
0.0
10
45.999999999898776
20
-27.000000000119641
10
59.999999999898783
20
-27.000000000165358
10
59.999999999944507
20
-13.000000000165347
10
45.999999999944507
20
-13.000000000119636
0
LWPOLYLINE
5
124
100
AcDbEntity
8
0
100
AcDbPolyline
90
4
70
1
43
0.0
10
83.999999999944521
20
-13.000000000243716
10
83.999999999898819
20
-27.000000000243716
10
97.99999999989879
20
-27.000000000289425
10
97.999999999944478
20
-13.000000000289422
0
CIRCLE
5
125
100
AcDbEntity
8
0
100
AcDbCircle
10
173.00000000021285
20
-58.99999999939736
30
-4.0206257006692266e-11
40
2.6000000000000121
210
-9.4225817624606235e-12
220
1.2246469529825531e-16
230
-1
0
CIRCLE
5
126
100
AcDbEntity
8
0
100
AcDbCircle
10
32.999999262392521
20
53.999998580664396
30
0
40
1.5999999999999974
210
0
220
0
230
1
0
CIRCLE
5
127
100
AcDbEntity
8
0
100
AcDbCircle
10
32.999999262392521
20
19.999999340623617
30
0
40
1.6000000000000005
210
0
220
0
230
1
0
CIRCLE
5
128
100
AcDbEntity
8
0
100
AcDbCircle
10
-32.999999262392521
20
19.999999340623617
30
0
40
1.6000000000000014
210
0
220
0
230
1
0
CIRCLE
5
129
100
AcDbEntity
8
0
100
AcDbCircle
10
-32.999999262392521
20
53.999998580664396
30
0
40
1.5999999999999956
210
0
220
0
230
1
0
CIRCLE
5
130
100
AcDbEntity
8
0
100
AcDbCircle
10
-52.999999999813205
20
59.000000000578964
30
1.6703206661723019e-09
40
2.5999999999999979
210
0
220
0
230
1
0
CIRCLE
5
131
100
AcDbEntity
8
0
100
AcDbCircle
10
53.000000000186809
20
58.999999999482128
30
-1.6313519833939013e-09
40
2.6000000000000032
210
0
220
0
230
1
0
LWPOLYLINE
5
132
100
AcDbEntity
8
0
100
AcDbPolyline
90
4
70
1
43
0.0
10
-12.000000178813934
20
-27.000000402331352
10
-26.000000387430191
20
-27.000000402331352
10
-26.000000387430191
20
-13.000000193715096
10
-12.000000178813934
20
-13.000000193715096
0
LWPOLYLINE
5
133
100
AcDbEntity
8
0
100
AcDbPolyline
90
4
70
1
43
0.0
10
12.000000178813934
20
-27.000000402331352
10
26.000000387430191
20
-27.000000402331352
10
26.000000387430191
20
-13.000000193715096
10
12.000000178813934
20
-13.000000193715096
0
ENDSEC
0
SECTION
2
OBJECTS
0
DICTIONARY
5
C
100
AcDbDictionary
3
ACAD_GROUP
350
D
3
ACAD_MLINESTYLE
350
17
0
DICTIONARY
5
D
100
AcDbDictionary
0
DICTIONARY
5
1A
330
C
100
AcDbDictionary
0
DICTIONARY
5
17
100
AcDbDictionary
0
ENDSEC
0
EOF
