0
SECTION
2
HEADER
9
$INSUNITS
70
4
9
$ACADVER
1
AC1014
9
$HANDSEED
5
FFFF
0
ENDSEC
0
SECTION
2
TABLES
0
TABLE
2
VPORT
5
8
100
AcDbSymbolTable
0
ENDTAB
0
TABLE
2
LTYPE
5
5
100
AcDbSymbolTable
0
LTYPE
5
14
100
AcDbSymbolTableRecord
100
AcDbLinetypeTableRecord
2
BYBLOCK
70
0
0
LTYPE
5
15
100
AcDbSymbolTableRecord
100
AcDbLinetypeTableRecord
2
BYLAYER
70
0
0
ENDTAB
0
TABLE
2
LAYER
5
2
100
AcDbSymbolTable
70
2
0
LAYER
5
50
100
AcDbSymbolTableRecord
100
AcDbLayerTableRecord
2
0
70
0
6
CONTINUOUS
0
ENDTAB
0
TABLE
2
STYLE
5
3
100
AcDbSymbolTable
70
1
0
STYLE
5
11
100
AcDbSymbolTableRecord
100
AcDbTextStyleTableRecord
2
STANDARD
70
0
0
ENDTAB
0
TABLE
2
VIEW
5
6
100
AcDbSymbolTable
70
0
0
ENDTAB
0
TABLE
2
UCS
5
7
100
AcDbSymbolTable
70
0
0
ENDTAB
0
TABLE
2
APPID
5
9
100
AcDbSymbolTable
70
2
0
APPID
5
12
100
AcDbSymbolTableRecord
100
AcDbRegAppTableRecord
2
ACAD
70
0
0
ENDTAB
0
TABLE
2
DIMSTYLE
5
A
100
AcDbSymbolTable
70
1
0
ENDTAB
0
TABLE
2
BLOCK_RECORD
5
1
100
AcDbSymbolTable
70
1
0
BLOCK_RECORD
5
1F
100
AcDbSymbolTableRecord
100
AcDbBlockTableRecord
2
*MODEL_SPACE
0
BLOCK_RECORD
5
1B
100
AcDbSymbolTableRecord
100
AcDbBlockTableRecord
2
*PAPER_SPACE
0
ENDTAB
0
ENDSEC
0
SECTION
2
BLOCKS
0
BLOCK
5
20
100
AcDbEntity
100
AcDbBlockBegin
2
*MODEL_SPACE
0
ENDBLK
5
21
100
AcDbEntity
100
AcDbBlockEnd
0
BLOCK
5
1C
100
AcDbEntity
100
AcDbBlockBegin
2
*PAPER_SPACE
0
ENDBLK
5
1D
100
AcDbEntity
100
AcDbBlockEnd
0
ENDSEC
0
SECTION
2
ENTITIES
0
LWPOLYLINE
5
100
100
AcDbEntity
8
0
100
AcDbPolyline
90
4
70
1
43
0.0
10
89.000001177191734
20
44.000000476837158
10
69.00000117719172
20
44.000000476837158
10
69.00000117719172
20
5.0000001937150955
10
89.000001177191734
20
5.0000001937150955
0
LWPOLYLINE
5
101
100
AcDbEntity
8
0
100
AcDbPolyline
90
16
70
1
43
0.0
10
43.000000789761536
20
-56.000000715255744
10
63.000000789761543
20
-56.000000715255744
10
63.000000789761543
20
-43.000000521540642
10
82.000001072883592
20
-43.000000521540642
10
82.000001072883592
20
-30.000000327825546
10
101.00000135600568
20
-30.000000327825546
10
101.00000135600568
20
-10.000000327825546
10
82.000001072883592
20
-10.000000178813938
10
82.000001072883592
20
2.9999998658895493
10
62.000001072883606
20
2.9999998658895493
10
62.000001072883606
20
-10.000000178813938
10
43.000000789761536
20
-10.000000327825546
10
43.000000789761536
20
-30.000000327825546
10
62.000000923872001
20
-30.000000327825546
10
62.000000923872001
20
-36.000000566244132
10
43.000000789761536
20
-36.00000071525573
0
LWPOLYLINE
5
102
100
AcDbEntity
8
0
100
AcDbPolyline
90
4
70
1
43
0.0
10
-89.000001177191734
20
24.000000476837158
10
-69.00000117719172
20
24.000000476837158
10
-69.00000117719172
20
44.000000476837158
10
-89.000001177191734
20
44.000000476837158
0
LWPOLYLINE
5
103
100
AcDbEntity
8
0
100
AcDbPolyline
90
4
70
1
43
0.0
10
-124.0000019967556
20
33.000000610947609
10
-124.0000019967556
20
53.000000610947609
10
-144.0000019967556
20
53.000000610947609
10
-144.0000019967556
20
33.000000610947609
0
LWPOLYLINE
5
104
100
AcDbEntity
8
0
100
AcDbPolyline
90
4
70
1
43
0.0
10
-95.000001564621925
20
36.000000655651093
10
-95.000001564621925
20
56.000000655651093
10
-115.00000156462193
20
56.000000655651093
10
-115.00000156462193
20
36.000000655651093
0
LWPOLYLINE
5
105
100
AcDbEntity
8
0
100
AcDbPolyline
90
8
70
1
43
0.0
10
173.99999590516106
20
69.000001028180151
10
-173.99999738815052
20
69.000001028180151
42
0.41421356237309476
10
-182.99999738815049
20
60.000001028180151
10
-183.00000228201571
20
-60.000000583283324
42
0.41421357685168331
10
-174.00000228201574
20
-69.000001028180165
10
173.99999590516106
20
-69.000001028180222
42
0.41421356237309503
10
182.99999590516106
20
-60.000001028180215
10
182.99999590516106
20
60.000001028180144
42
0.41421356237309503
0
LWPOLYLINE
5
106
100
AcDbEntity
8
0
100
AcDbPolyline
90
4
70
1
43
0.0
10
170.00000238418582
20
37.00000037252903
10
150.00000238418582
20
37.00000037252903
10
150.00000238418582
20
-1.9999999105930328
10
170.00000238418582
20
-1.9999999105930328
0
LWPOLYLINE
5
107
100
AcDbEntity
8
0
100
AcDbPolyline
90
4
70
1
43
0.0
10
115.00000156462193
20
56.000000655651093
10
95.000001564621925
20
56.000000655651093
10
95.000001564621925
20
17.00000037252903
10
115.00000156462193
20
17.00000037252903
0
LWPOLYLINE
5
108
100
AcDbEntity
8
0
100
AcDbPolyline
90
4
70
1
43
0.0
10
-150.00000238418582
20
37.00000037252903
10
-170.00000238418582
20
37.00000037252903
10
-170.00000238418582
20
17.00000037252903
10
-150.00000238418582
20
17.00000037252903
0
LWPOLYLINE
5
109
100
AcDbEntity
8
0
100
AcDbPolyline
90
8
70
1
43
0.0
10
-62.000001072883606
20
-36.00000071525573
10
-62.000001072883606
20
-23.000000521540642
10
-82.000001072883592
20
-23.000000521540642
10
-82.000001072883592
20
-43.000000521540642
10
-63.000000789761543
20
-43.000000670552254
10
-63.000000789761543
20
-56.000000715255744
10
-43.000000789761536
20
-56.000000715255744
10
-43.000000789761536
20
-36.00000071525573
0
LWPOLYLINE
5
110
100
AcDbEntity
8
0
100
AcDbPolyline
90
4
70
1
43
0.0
10
124.0000019967556
20
14.000000327825546
10
144.0000019967556
20
14.000000327825546
10
144.0000019967556
20
53.000000610947609
10
124.0000019967556
20
53.000000610947609
0
CIRCLE
5
111
100
AcDbEntity
8
0
100
AcDbCircle
10
173.00000257790089
20
-59.000000908970833
30
0
40
2.5999999999999845
210
0
220
0
230
1
0
CIRCLE
5
112
100
AcDbEntity
8
0
100
AcDbCircle
10
-173.00000257790089
20
-59.000000908970833
30
0
40
2.600000000000005
210
0
220
0
230
1
0
CIRCLE
5
113
100
AcDbEntity
8
0
100
AcDbCircle
10
0
20
-59.000000908970833
30
0
40
2.6000000000000023
210
0
220
0
230
1
0
CIRCLE
5
114
100
AcDbEntity
8
0
100
AcDbCircle
10
-173.00000257790089
20
59.000000849366188
30
0
40
2.6000000000000161
210
0
220
0
230
1
0
CIRCLE
5
115
100
AcDbEntity
8
0
100
AcDbCircle
10
173.00000257790089
20
59.000000849366188
30
0
40
2.6000000000000107
210
0
220
0
230
1
0
CIRCLE
5
116
100
AcDbEntity
8
0
100
AcDbCircle
10
32.999999262392521
20
53.999998580664396
30
0
40
3.5000000000000004
210
0
220
0
230
1
0
CIRCLE
5
117
100
AcDbEntity
8
0
100
AcDbCircle
10
-32.999999262392521
20
53.999998580664396
30
0
40
3.4999999999999987
210
0
220
0
230
1
0
CIRCLE
5
118
100
AcDbEntity
8
0
100
AcDbCircle
10
32.999999262392521
20
19.999999340623617
30
0
40
3.5000000000000018
210
0
220
0
230
1
0
CIRCLE
5
119
100
AcDbEntity
8
0
100
AcDbCircle
10
-32.999999262392521
20
19.999999340623617
30
0
40
3.5000000000000004
210
0
220
0
230
1
0
CIRCLE
5
120
100
AcDbEntity
8
0
100
AcDbCircle
10
53.000002577900887
20
59.000000849366188
30
0
40
2.6000000000000028
210
0
220
0
230
1
0
CIRCLE
5
121
100
AcDbEntity
8
0
100
AcDbCircle
10
-53.000002577900887
20
59.000000849366188
30
0
40
2.5999999999999983
210
0
220
0
230
1
0
LWPOLYLINE
5
122
100
AcDbEntity
8
0
100
AcDbPolyline
90
4
70
1
43
0.0
10
29.000000000000004
20
-29.999999865889553
10
-29.000000000000004
20
-29.999999865889553
10
-29.000000000000004
20
-9.9999998658895493
10
29.000000000000004
20
-9.9999998658895493
0
ENDSEC
0
SECTION
2
OBJECTS
0
DICTIONARY
5
C
100
AcDbDictionary
3
ACAD_GROUP
350
D
3
ACAD_MLINESTYLE
350
17
0
DICTIONARY
5
D
100
AcDbDictionary
0
DICTIONARY
5
1A
330
C
100
AcDbDictionary
0
DICTIONARY
5
17
100
AcDbDictionary
0
ENDSEC
0
EOF
