0
SECTION
2
HEADER
9
$INSUNITS
70
4
9
$ACADVER
1
AC1014
9
$HANDSEED
5
FFFF
0
ENDSEC
0
SECTION
2
TABLES
0
TABLE
2
VPORT
5
8
100
AcDbSymbolTable
0
ENDTAB
0
TABLE
2
LTYPE
5
5
100
AcDbSymbolTable
0
LTYPE
5
14
100
AcDbSymbolTableRecord
100
AcDbLinetypeTableRecord
2
BYBLOCK
70
0
0
LTYPE
5
15
100
AcDbSymbolTableRecord
100
AcDbLinetypeTableRecord
2
BYLAYER
70
0
0
ENDTAB
0
TABLE
2
LAYER
5
2
100
AcDbSymbolTable
70
2
0
LAYER
5
50
100
AcDbSymbolTableRecord
100
AcDbLayerTableRecord
2
0
70
0
6
CONTINUOUS
0
ENDTAB
0
TABLE
2
STYLE
5
3
100
AcDbSymbolTable
70
1
0
STYLE
5
11
100
AcDbSymbolTableRecord
100
AcDbTextStyleTableRecord
2
STANDARD
70
0
0
ENDTAB
0
TABLE
2
VIEW
5
6
100
AcDbSymbolTable
70
0
0
ENDTAB
0
TABLE
2
UCS
5
7
100
AcDbSymbolTable
70
0
0
ENDTAB
0
TABLE
2
APPID
5
9
100
AcDbSymbolTable
70
2
0
APPID
5
12
100
AcDbSymbolTableRecord
100
AcDbRegAppTableRecord
2
ACAD
70
0
0
ENDTAB
0
TABLE
2
DIMSTYLE
5
A
100
AcDbSymbolTable
70
1
0
ENDTAB
0
TABLE
2
BLOCK_RECORD
5
1
100
AcDbSymbolTable
70
1
0
BLOCK_RECORD
5
1F
100
AcDbSymbolTableRecord
100
AcDbBlockTableRecord
2
*MODEL_SPACE
0
BLOCK_RECORD
5
1B
100
AcDbSymbolTableRecord
100
AcDbBlockTableRecord
2
*PAPER_SPACE
0
ENDTAB
0
ENDSEC
0
SECTION
2
BLOCKS
0
BLOCK
5
20
100
AcDbEntity
100
AcDbBlockBegin
2
*MODEL_SPACE
0
ENDBLK
5
21
100
AcDbEntity
100
AcDbBlockEnd
0
BLOCK
5
1C
100
AcDbEntity
100
AcDbBlockBegin
2
*PAPER_SPACE
0
ENDBLK
5
1D
100
AcDbEntity
100
AcDbBlockEnd
0
ENDSEC
0
SECTION
2
ENTITIES
0
LWPOLYLINE
5
100
100
AcDbEntity
8
0
100
AcDbPolyline
90
8
70
1
43
0.0
10
-174.000000000303
20
-69.000000082683485
10
174.00000272651295
20
-69.000000083794973
42
0.4142135623731884
10
183.00000272654165
20
-60.000000083820851
10
183.0000027269125
20
60.000001028152347
42
0.41421356237399976
10
174.00000272691256
20
69.000001028180137
10
-173.99999999987574
20
69.000001028248704
42
0.41421356237315027
10
-182.99999999990513
20
60.00000102827638
10
-183.00000000027424
20
-60.000000082655802
42
0.41421356237306062
0
CIRCLE
5
101
100
AcDbEntity
8
0
100
AcDbCircle
10
-53.000000278680204
20
58.999999871886942
30
1.6703206661723019e-09
40
3.25
210
0
220
0
230
1
0
LINE
5
102
100
AcDbEntity
8
0
100
AcDbLine
10
-173.00000271217741
20
-4.9999992698308473
30
0
11
-124.00000008341357
21
-4.9999992699815614
31
1.3826061577311982e-11
0
CIRCLE
5
103
100
AcDbEntity
8
0
100
AcDbCircle
10
173.00000037205268
20
58.999999598381734
30
-4.0206792343943837e-11
40
3.25
210
-9.4225817624606235e-12
220
1.2246469529825531e-16
230
-1
0
LINE
5
104
100
AcDbEntity
8
0
100
AcDbLine
10
173.00000257784296
20
-5.0000000744867723
30
0
11
173.00000257800184
21
49.000001385672704
31
0
0
ARC
5
105
100
AcDbEntity
8
0
100
AcDbCircle
10
173.00000024312709
20
58.999999337437472
30
2.659104215945016e-08
40
9.9999979517650299
210
1.6313523175331828e-10
220
-1.6782078003844832e-17
230
1
100
AcDbArc
50
179.99999041641459
51
270.00001337784965
0
LINE
5
106
100
AcDbEntity
8
0
100
AcDbLine
10
-173.00000271201131
20
49.000000860867551
30
0
11
-173.00000271217741
21
-4.9999992698308473
31
0
0
LINE
5
107
100
AcDbEntity
8
0
100
AcDbLine
10
-163.00000163453834
20
59.00000102818008
30
0
11
-63.000000913184877
21
59.000001028180108
31
0
0
CIRCLE
5
108
100
AcDbEntity
8
0
100
AcDbCircle
10
53.000000278942245
20
58.999999870841584
30
-1.6313519833939013e-09
40
3.25
210
0
220
0
230
1
0
LINE
5
109
100
AcDbEntity
8
0
100
AcDbLine
10
-104.00000008349525
20
-24.999999269980222
30
1.9469351714262079e-11
11
-104.00000008352727
21
-59.000001012357409
31
1.9469351714262082e-11
0
CIRCLE
5
110
100
AcDbEntity
8
0
100
AcDbCircle
10
-172.99999999978718
20
-59.000000000541483
30
1.25310274813437e-12
40
3.25
210
-9.4225817624606235e-12
220
1.2246469529825531e-16
230
-1
0
CIRCLE
5
111
100
AcDbEntity
8
0
100
AcDbCircle
10
-173.00000024312709
20
58.999999337437465
30
1.252561614270159e-12
40
3.25
210
-9.4225817624606235e-12
220
1.2246469529825531e-16
230
-1
0
CIRCLE
5
112
100
AcDbEntity
8
0
100
AcDbCircle
10
173.00000000021285
20
-58.99999999939736
30
-4.0206257006692266e-11
40
3.25
210
-9.4225817624606235e-12
220
1.2246469529825531e-16
230
-1
0
CIRCLE
5
113
100
AcDbEntity
8
0
100
AcDbCircle
10
2.1289346816592565e-10
20
-58.999999999969461
30
-1.947657712927867e-11
40
3.25
210
-9.4225817624606235e-12
220
1.2246469529825531e-16
230
-1
0
ARC
5
114
100
AcDbEntity
8
0
100
AcDbCircle
10
-173.00000037205268
20
58.999999598381734
30
-8.1845646040090172e-09
40
9.9999987375144599
210
-4.5302414834429085e-17
220
-1.6703208770478372e-10
230
1
100
AcDbArc
50
-90.000013406977047
51
8.1891091329340797e-06
0
LINE
5
115
100
AcDbEntity
8
0
100
AcDbLine
10
104.00000257783283
20
-25.000000074280152
30
0
11
104.00000257771711
21
-59.000001013094348
31
0
0
ARC
5
116
100
AcDbEntity
8
0
100
AcDbCircle
10
124.0000025778356
20
-25.000000074345849
30
0
40
20.000000000000053
210
0
220
-0
230
1
100
AcDbArc
50
89.999999999812928
51
180
0
LINE
5
117
100
AcDbEntity
8
0
100
AcDbLine
10
173.00000257784296
20
-5.0000000744867723
30
0
11
124.0000025779009
21
-5.0000000743457962
31
0
0
ARC
5
118
100
AcDbEntity
8
0
100
AcDbCircle
10
-124.0000000834751
20
-24.999999269961393
30
1.3826061577294623e-11
40
19.999999999979838
210
-2.8216450684865728e-13
220
-1.0335717952102725e-28
230
1
100
AcDbArc
50
0
51
89.999999999823714
0
LINE
5
119
100
AcDbEntity
8
0
100
AcDbLine
10
163.00000229136219
20
59.000001014979063
30
0
11
63.000000583277689
21
59.00000000133933
31
-1.6313519833939013e-09
0
LINE
5
120
100
AcDbEntity
8
0
100
AcDbLine
10
104.00000257771711
20
-59.000001013094348
30
0
11
29.000002577830788
21
-59.00000101283473
31
0
0
LINE
5
121
100
AcDbEntity
8
0
100
AcDbLine
10
-104.00000008352727
20
-59.000001012357409
30
1.9469351714262082e-11
11
-29.000000083513896
21
-59.000001012428015
31
1.9469351714262082e-11
0
ARC
5
122
100
AcDbEntity
8
0
100
AcDbCircle
10
53.000000278942245
20
58.999999870841592
30
-1.6313519833939013e-09
40
10.000000304335435
210
0
220
0
230
1
100
AcDbArc
50
-180.00000579057459
51
8.5377364625159387e-07
0
ARC
5
123
100
AcDbEntity
8
0
100
AcDbCircle
10
-53.000000278680204
20
58.999999871886942
30
1.052302069441572e-08
40
10.000000634504737
210
-1.6703205601896623e-10
220
1.7164231901337967e-17
230
1
100
AcDbArc
50
-180.00000655795981
51
0
0
LINE
5
124
100
AcDbEntity
8
0
100
AcDbLine
10
23.00000041723251
20
16.000000238418579
30
-1.6313519833939013e-09
11
-23.000000417232513
21
16.000000238418579
31
-1.6313519833939013e-09
0
ARC
5
125
100
AcDbEntity
8
0
100
AcDbCircle
10
23.000000417232513
20
21.000000238418579
30
-1.6313519833939013e-09
40
5
210
0
220
0
230
1
100
AcDbArc
50
-90.000000000000057
51
0
0
ARC
5
126
100
AcDbEntity
8
0
100
AcDbCircle
10
-23.000000417232513
20
21.000000238418579
30
-1.6313519833939013e-09
40
4.9999999999999956
210
0
220
0
230
1
100
AcDbArc
50
180
51
270
0
LINE
5
127
100
AcDbEntity
8
0
100
AcDbLine
10
-42.99999964417546
20
59.000000000578964
30
1.6703206661723019e-09
11
-32.999999745893497
21
59.000000000578964
31
1.6703206661723019e-09
0
LINE
5
128
100
AcDbEntity
8
0
100
AcDbLine
10
42.999999974606865
20
59.000000879168539
30
-1.6313519833939013e-09
11
33.000000032847076
21
59.000000879168539
31
-1.6313519833939013e-09
0
LINE
5
129
100
AcDbEntity
8
0
100
AcDbLine
10
-27.99999974589349
20
53.999999898860935
30
1.2358900428303165e-09
11
-28.00000041723251
21
21.000000238418579
31
-1.6313519833939013e-09
0
LINE
5
130
100
AcDbEntity
8
0
100
AcDbLine
10
28.000000417232513
20
21.000000238418579
30
-1.6313519833939013e-09
11
28.00000003284708
21
54.000000820928321
31
-1.6313519833939013e-09
0
LINE
5
131
100
AcDbEntity
8
0
100
AcDbLine
10
-29.000000083513896
20
-59.000001012428015
30
1.9469351714262082e-11
11
-29.000000083499557
21
-44.000000618355116
31
1.9469351714262082e-11
0
LINE
5
132
100
AcDbEntity
8
0
100
AcDbLine
10
29.000002577830788
20
-59.00000101283473
30
0
11
29.000002577882714
21
-44.000000975637434
31
0
0
LINE
5
133
100
AcDbEntity
8
0
100
AcDbLine
10
-24.000000046284953
20
-39.000000618359884
30
1.7790959389625929e-11
11
24.000002615097316
21
-39.000000975620125
31
1.6783922996592866e-12
0
ARC
5
134
100
AcDbEntity
8
0
100
AcDbCircle
10
-32.99999974589349
20
54.000000000578964
30
-3.4559605850263822e-09
40
5.0000000000000009
210
1.3362618295976733e-25
220
-8.6886122900819934e-11
230
1
100
AcDbArc
50
-1.2074182490616497e-06
51
90.000000000000099
0
ARC
5
135
100
AcDbEntity
8
0
100
AcDbCircle
10
33.00000003284709
20
54.000000879168525
30
-1.6313519833939013e-09
40
5.0000000000000089
210
0
220
0
230
1
100
AcDbArc
50
90.000000000000171
51
180
0
ARC
5
136
100
AcDbEntity
8
0
100
AcDbCircle
10
-24.000000083499557
20
-44.000000618359884
30
1.7790959402116473e-11
40
5
210
3.3567846242912254e-13
220
-3.2019108276167245e-25
230
1
100
AcDbArc
50
89.999999573552046
51
180
0
ARC
5
137
100
AcDbEntity
8
0
100
AcDbCircle
10
24.000002577882711
20
-44.000000975620132
30
1.6783923121456191e-12
40
5.0000000000000044
210
3.3567846242912355e-13
220
-1.1617320194423322e-24
230
1
100
AcDbArc
50
0
51
89.999999573552046
0
ENDSEC
0
SECTION
2
OBJECTS
0
DICTIONARY
5
C
100
AcDbDictionary
3
ACAD_GROUP
350
D
3
ACAD_MLINESTYLE
350
17
0
DICTIONARY
5
D
100
AcDbDictionary
0
DICTIONARY
5
1A
330
C
100
AcDbDictionary
0
DICTIONARY
5
17
100
AcDbDictionary
0
ENDSEC
0
EOF
