0
SECTION
2
HEADER
9
$INSUNITS
70
4
9
$ACADVER
1
AC1014
9
$HANDSEED
5
FFFF
0
ENDSEC
0
SECTION
2
TABLES
0
TABLE
2
VPORT
5
8
100
AcDbSymbolTable
0
ENDTAB
0
TABLE
2
LTYPE
5
5
100
AcDbSymbolTable
0
LTYPE
5
14
100
AcDbSymbolTableRecord
100
AcDbLinetypeTableRecord
2
BYBLOCK
70
0
0
LTYPE
5
15
100
AcDbSymbolTableRecord
100
AcDbLinetypeTableRecord
2
BYLAYER
70
0
0
ENDTAB
0
TABLE
2
LAYER
5
2
100
AcDbSymbolTable
70
2
0
LAYER
5
50
100
AcDbSymbolTableRecord
100
AcDbLayerTableRecord
2
0
70
0
6
CONTINUOUS
0
ENDTAB
0
TABLE
2
STYLE
5
3
100
AcDbSymbolTable
70
1
0
STYLE
5
11
100
AcDbSymbolTableRecord
100
AcDbTextStyleTableRecord
2
STANDARD
70
0
0
ENDTAB
0
TABLE
2
VIEW
5
6
100
AcDbSymbolTable
70
0
0
ENDTAB
0
TABLE
2
UCS
5
7
100
AcDbSymbolTable
70
0
0
ENDTAB
0
TABLE
2
APPID
5
9
100
AcDbSymbolTable
70
2
0
APPID
5
12
100
AcDbSymbolTableRecord
100
AcDbRegAppTableRecord
2
ACAD
70
0
0
ENDTAB
0
TABLE
2
DIMSTYLE
5
A
100
AcDbSymbolTable
70
1
0
ENDTAB
0
TABLE
2
BLOCK_RECORD
5
1
100
AcDbSymbolTable
70
1
0
BLOCK_RECORD
5
1F
100
AcDbSymbolTableRecord
100
AcDbBlockTableRecord
2
*MODEL_SPACE
0
BLOCK_RECORD
5
1B
100
AcDbSymbolTableRecord
100
AcDbBlockTableRecord
2
*PAPER_SPACE
0
ENDTAB
0
ENDSEC
0
SECTION
2
BLOCKS
0
BLOCK
5
20
100
AcDbEntity
100
AcDbBlockBegin
2
*MODEL_SPACE
0
ENDBLK
5
21
100
AcDbEntity
100
AcDbBlockEnd
0
BLOCK
5
1C
100
AcDbEntity
100
AcDbBlockBegin
2
*PAPER_SPACE
0
ENDBLK
5
1D
100
AcDbEntity
100
AcDbBlockEnd
0
ENDSEC
0
SECTION
2
ENTITIES
0
CIRCLE
5
100
100
AcDbEntity
8
0
100
AcDbCircle
10
-173.00000000018682
20
58.999999999458481
30
1.2525639034757022e-12
40
2.5999999999999974
210
-9.4225817624606235e-12
220
1.2246469529825531e-16
230
-1
0
CIRCLE
5
101
100
AcDbEntity
8
0
100
AcDbCircle
10
-52.999999999813205
20
59.000000000578964
30
1.6703206661723019e-09
40
2.5999999999999979
210
0
220
0
230
1
0
ARC
5
102
100
AcDbEntity
8
0
100
AcDbCircle
10
174.00000272654168
20
-60.000000083794973
30
0
40
9.0000000000000036
210
0
220
0
230
1
100
AcDbArc
50
269.99999999981708
51
360
0
CIRCLE
5
103
100
AcDbEntity
8
0
100
AcDbCircle
10
2.1289346816592565e-10
20
-58.999999999969461
30
-1.947657712927867e-11
40
2.6000000000000005
210
-9.4225817624606235e-12
220
1.2246469529825531e-16
230
-1
0
CIRCLE
5
104
100
AcDbEntity
8
0
100
AcDbCircle
10
53.000000000186809
20
58.999999999482128
30
-1.6313519833939013e-09
40
2.6000000000000032
210
0
220
0
230
1
0
LINE
5
105
100
AcDbEntity
8
0
100
AcDbLine
10
183.0000027269125
20
60.000001028180122
30
0
11
183.00000272654165
21
-60.000000083820844
31
0
0
CIRCLE
5
106
100
AcDbEntity
8
0
100
AcDbCircle
10
-172.99999999978718
20
-59.000000000541483
30
1.25310274813437e-12
40
2.5999999999999868
210
-9.4225817624606235e-12
220
1.2246469529825531e-16
230
-1
0
CIRCLE
5
107
100
AcDbEntity
8
0
100
AcDbCircle
10
173.00000000021285
20
-58.99999999939736
30
-4.0206257006692266e-11
40
2.6000000000000121
210
-9.4225817624606235e-12
220
1.2246469529825531e-16
230
-1
0
ARC
5
108
100
AcDbEntity
8
0
100
AcDbCircle
10
174.0000027269125
20
60.000001028180144
30
0
40
8.9999999999999858
210
0
220
0
230
1
100
AcDbArc
50
0
51
90
0
ARC
5
109
100
AcDbEntity
8
0
100
AcDbCircle
10
-174.00000000027427
20
-60.000000082683485
30
0
40
8.9999999999999858
210
0
220
0
230
1
100
AcDbArc
50
180
51
269.99999999981708
0
LINE
5
110
100
AcDbEntity
8
0
100
AcDbLine
10
-183.00000000027424
20
-60.000000082655802
30
0
11
-182.99999999990513
21
60.00000102827638
31
0
0
CIRCLE
5
111
100
AcDbEntity
8
0
100
AcDbCircle
10
172.99999999981321
20
59.000000000602604
30
-4.0206795851351451e-11
40
2.6000000000000134
210
-9.4225817624606235e-12
220
1.2246469529825531e-16
230
-1
0
ARC
5
112
100
AcDbEntity
8
0
100
AcDbCircle
10
-173.99999999990513
20
60.000001028248697
30
0
40
9.0000000000000036
210
0
220
-0
230
1
100
AcDbArc
50
89.999999999812914
51
180
0
LINE
5
113
100
AcDbEntity
8
0
100
AcDbLine
10
174.00000272651295
20
-69.000000083794973
30
0
11
-174.000000000303
21
-69.000000082683485
31
0
0
LINE
5
114
100
AcDbEntity
8
0
100
AcDbLine
10
-163.00000072936717
20
59.000001028180122
30
0
11
-63.000000938775131
21
59.000001028180122
31
0
0
ARC
5
115
100
AcDbEntity
8
0
100
AcDbCircle
10
173.00000000018682
20
58.999999999458481
30
2.6591043193582905e-08
40
9.9999975712995397
210
1.6313523796005201e-10
220
-1.6782079049132056e-17
230
1
100
AcDbArc
50
179.99999414682276
51
270.00001476921477
0
ARC
5
116
100
AcDbEntity
8
0
100
AcDbCircle
10
-172.99999999981321
20
59.000000000602604
30
-8.184564145994728e-09
40
9.9999992704460752
210
-4.5302412751475163e-17
220
-1.6703207880311492e-10
230
1
100
AcDbArc
50
-90.000015539751715
51
5.9151173338843952e-06
0
ARC
5
117
100
AcDbEntity
8
0
100
AcDbCircle
10
-52.999999999813205
20
59.000000000578964
30
1.0523020378309155e-08
40
10.000000938961975
210
-1.6703205093355485e-10
220
1.7164231313315373e-17
230
1
100
AcDbArc
50
-180.00000585317724
51
5.8531772256259167e-06
0
LINE
5
118
100
AcDbEntity
8
0
100
AcDbLine
10
173.00000257790089
20
-5.000000074505806
30
0
11
124.0000025779009
21
-5.0000000743457962
31
0
0
LINE
5
119
100
AcDbEntity
8
0
100
AcDbLine
10
104.00000257783555
20
-25.000000074280461
30
0
11
104.00000257772449
21
-59.000001013086219
31
0
0
ARC
5
120
100
AcDbEntity
8
0
100
AcDbCircle
10
124.0000025778356
20
-25.000000074345849
30
0
40
20.000000000000053
210
0
220
-0
230
1
100
AcDbArc
50
89.999999999812928
51
180
0
LINE
5
121
100
AcDbEntity
8
0
100
AcDbLine
10
173.00000257790089
20
-5.000000074505806
30
0
11
173.00000257790089
21
49.000000730156898
31
0
0
LINE
5
122
100
AcDbEntity
8
0
100
AcDbLine
10
-173.00000271201134
20
49.000000730156898
30
0
11
-173.00000271217743
21
-4.9999992698430962
31
0
0
LINE
5
123
100
AcDbEntity
8
0
100
AcDbLine
10
-173.00000271217743
20
-4.9999992698430962
30
0
11
-124.0000000834212
21
-4.9999992699938112
31
1.3826061577311982e-11
0
LINE
5
124
100
AcDbEntity
8
0
100
AcDbLine
10
-104.00000008348272
20
-24.999999269993801
30
1.9469351714262079e-11
11
-104.00000008348272
21
-59.000001012413591
31
1.9469351714262082e-11
0
ARC
5
125
100
AcDbEntity
8
0
100
AcDbCircle
10
-124.00000008348272
20
-24.999999269993808
30
1.3826061577294623e-11
40
20
210
-2.8216450684837284e-13
220
-1.0335717978881955e-28
230
1
100
AcDbArc
50
0
51
89.999999999823757
0
LINE
5
126
100
AcDbEntity
8
0
100
AcDbLine
10
63.000000000186809
20
58.999999999482128
30
-1.6313519833939013e-09
11
163.00000242888731
21
59.000001028180122
31
0
0
ARC
5
127
100
AcDbEntity
8
0
100
AcDbCircle
10
53.000000000186809
20
58.999999999482128
30
-1.6313519833939013e-09
40
10
210
0
220
0
230
1
100
AcDbArc
50
-180
51
0
0
LINE
5
128
100
AcDbEntity
8
0
100
AcDbLine
10
-104.00000008348272
20
-59.000001012413591
30
1.9469351714262082e-11
11
-29.000000083482725
21
-59.000001012413591
31
1.9469351714262082e-11
0
LINE
5
129
100
AcDbEntity
8
0
100
AcDbLine
10
104.00000257772449
20
-59.000001013086219
30
0
11
29.000002577724491
21
-59.000001012841246
31
0
0
LINE
5
130
100
AcDbEntity
8
0
100
AcDbLine
10
29.000002577724491
20
-59.000001012841246
30
0
11
29.000002577773486
21
-44.000001012820711
31
0
0
LINE
5
131
100
AcDbEntity
8
0
100
AcDbLine
10
-29.000000083482725
20
-59.000001012413591
30
1.9469351714262082e-11
11
-29.000000083482725
21
-44.000001012450454
31
1.9469351714262082e-11
0
LINE
5
132
100
AcDbEntity
8
0
100
AcDbLine
10
-24.000000083445858
20
-39.000001012450454
30
1.7790959402100553e-11
11
24.000002577810349
21
-39.000001012804383
31
1.678392312142264e-12
0
ARC
5
133
100
AcDbEntity
8
0
100
AcDbCircle
10
24.000002577773483
20
-44.00000101280439
30
1.6783923121491605e-12
40
5.0000000000000044
210
3.3567846242983178e-13
220
-1.0958522776367667e-24
230
1
100
AcDbArc
50
0
51
89.999999999577554
0
ARC
5
134
100
AcDbEntity
8
0
100
AcDbCircle
10
-24.000000083482718
20
-44.000001012450468
30
1.7790959402112922e-11
40
5.0000000000000089
210
3.3567846242983158e-13
220
-7.1384141976106978e-28
230
1
100
AcDbArc
50
89.999999999577625
51
180
0
LINE
5
135
100
AcDbEntity
8
0
100
AcDbLine
10
43.000000000186809
20
58.999999999482128
30
-1.6313519833939013e-09
11
12.344030962373553
21
58.999999999482128
31
-1.6313519833939013e-09
0
LINE
5
136
100
AcDbEntity
8
0
100
AcDbLine
10
-43.000000640749931
20
59.000001028197076
30
0
11
-12.344031236011004
21
59.000001028197076
31
0
0
LINE
5
137
100
AcDbEntity
8
0
100
AcDbLine
10
-173.99999999987574
20
69.000001028248704
30
0
11
-16.232092253675638
21
69.000001028181089
31
0
0
LINE
5
138
100
AcDbEntity
8
0
100
AcDbLine
10
174.0000027269125
20
69.000001028180137
30
0
11
16.23209416260309
21
69.000001028180137
31
0
0
LINE
5
139
100
AcDbEntity
8
0
100
AcDbLine
10
-11.386204939397999
20
60.287348875790563
30
0
11
-13.358613363837893
21
66.862044570961544
31
0
0
LINE
5
140
100
AcDbEntity
8
0
100
AcDbLine
10
11.386204740899256
20
60.287348097537901
30
-1.4213402176896036e-09
11
13.358615498180217
21
66.862045322347484
31
-3.4877579223334368e-10
0
ARC
5
141
100
AcDbEntity
8
0
100
AcDbCircle
10
-16.232094162603097
20
66.000001028180137
30
1.1256327695214162e-08
40
2.9999999999999978
210
-4.265150033476548e-25
220
1.6313518155770747e-10
230
-1
100
AcDbArc
50
16.69925694480407
51
89.999999999999872
0
ARC
5
142
100
AcDbEntity
8
0
100
AcDbCircle
10
-16.232092253676949
20
66.000001028181032
30
0
40
3.0000000000000444
210
0
220
-0
230
1
100
AcDbArc
50
16.699241962513057
51
89.99999999997496
0
ARC
5
143
100
AcDbEntity
8
0
100
AcDbCircle
10
12.344030962373546
20
59.999999999482121
30
-1.1256327695214036e-08
40
0.999999999999997
210
1.4023296322188047e-24
220
-1.6313518155770566e-10
230
1
100
AcDbArc
50
163.30074305519602
51
270.0000000000004
0
ARC
5
144
100
AcDbEntity
8
0
100
AcDbCircle
10
-12.344031236011002
20
60.000001028197076
30
0
40
0.99999999999999645
210
0
220
0
230
1
100
AcDbArc
50
-90.000000000000099
51
16.699241962512414
0
ENDSEC
0
SECTION
2
OBJECTS
0
DICTIONARY
5
C
100
AcDbDictionary
3
ACAD_GROUP
350
D
3
ACAD_MLINESTYLE
350
17
0
DICTIONARY
5
D
100
AcDbDictionary
0
DICTIONARY
5
1A
330
C
100
AcDbDictionary
0
DICTIONARY
5
17
100
AcDbDictionary
0
ENDSEC
0
EOF
